<?xml version="1.0" encoding="UTF-8"?>
<svg id="_ロゴ" data-name="ロゴ" xmlns="http://www.w3.org/2000/svg" viewBox="0 0 287.5 287.5">
  <defs>
    <style>
      .cls-1 {
        fill: #52b5f2;
      }

      .cls-1, .cls-2 {
        fill-rule: evenodd;
      }

      .cls-2 {
        fill: #023373;
      }

      .cls-3 {
        fill: #0583f2;
      }
    </style>
  </defs>
  <g>
    <rect class="cls-3" x="57.99" y="34.44" width="85.83" height="108.76"/>
    <path d="m147.1,146.19H54.72V31.46h92.37v114.73Zm-85.83-5.97h79.29V37.43H61.27v102.79Z"/>
  </g>
  <g>
    <path class="cls-1" d="m143.08,143.69c-8.58,9.63-22.64,23.04-43.51,34.48-15.44,8.46-29.94,13.3-41.13,16.16v58.18h85.23c-.2-36.27-.4-72.55-.6-108.82Z"/>
    <path d="m146.96,255.5H55.17v-63.43l2.39-.61c14.2-3.63,27.77-8.96,40.32-15.85,16.28-8.93,30.63-20.3,42.66-33.8l5.76-6.47.66,120.16Zm-85.25-5.97h78.67l-.54-97.81c-11.25,11.38-24.2,21.11-38.6,29.01-12.35,6.77-25.64,12.1-39.54,15.85v52.95Z"/>
  </g>
  <g>
    <polygon class="cls-1" points="144.27 34.43 144.27 111.76 187.19 143.12 229.51 111.76 229.51 34.43 144.27 34.43"/>
    <path d="m187.2,146.95l-46.2-33.76V31.45h91.78v81.73l-45.58,33.78Zm-39.66-36.63l39.63,28.96,39.06-28.95V37.42h-78.69v72.9Z"/>
  </g>
  <g>
    <path class="cls-2" d="m144.27,144.22v95.62c6.94,18.62,24.05,30.9,42.91,30.82,18.51-.08,35.27-12.03,42.32-30.2v-96.25h-85.23Z"/>
    <path d="m187.01,273.63c-20.11,0-38.51-13.18-45.84-32.84l-.17-.46v-99.07h91.78v99.72l-.19.48c-7.55,19.46-25.37,32.1-45.39,32.18h-.19Zm-39.47-34.28c6.56,17.05,22.46,28.43,39.63,28.36,17.06-.07,32.34-10.94,39.06-27.75v-92.77h-78.69v92.16Z"/>
  </g>
  <path d="m143.75,287.5C64.49,287.5,0,223.01,0,143.75S64.49,0,143.75,0s143.75,64.49,143.75,143.75-64.49,143.75-143.75,143.75Zm0-281.5C67.79,6,6,67.79,6,143.75s61.79,137.75,137.75,137.75,137.75-61.79,137.75-137.75S219.71,6,143.75,6Z"/>
</svg>